<?xml version="1.0" encoding="utf-8"?>
<!-- Generator: Adobe Illustrator 24.1.1, SVG Export Plug-In . SVG Version: 6.00 Build 0)  -->
<svg version="1.1" id="Capa_1" xmlns="http://www.w3.org/2000/svg" xmlns:xlink="http://www.w3.org/1999/xlink" x="0px" y="0px"
	 viewBox="0 0 512 512" style="enable-background:new 0 0 512 512;" xml:space="preserve">
<style type="text/css">
	.st0{fill:#ECEFF1;}
	.st1{fill:#FCAF17;}
</style>
<circle class="st0" cx="256" cy="256" r="256"/>
<path class="st1" d="M442.3,405.7c-11.1-8.8-24.7-15.1-39.4-18.2l-70.2-14.1c-7.4-1.4-12.7-8-12.7-15.7v-16.1
	c4.5-6.3,8.8-14.8,13.2-23.6c3.5-6.8,8.7-17.1,11.3-19.7c14.2-14.3,27.9-30.3,32.2-51c4-19.4,0.1-29.6-4.5-37.8
	c0-20.4-0.6-46-5.5-64.7c-0.6-25.2-5.2-39.4-16.7-51.8c-8.1-8.8-20.1-10.8-29.7-12.5c-3.8-0.6-9-1.5-10.9-2.6
	c-17.1-9.2-33.9-13.7-54-14.1c-42.1,1.7-94,28.5-111.3,76.4c-5.4,14.6-4.8,38.5-4.4,57.7l-0.4,11.6c-4.1,8.1-8.2,18.3-4.2,37.8
	c4.2,20.7,18,36.8,32.4,51.2c2.4,2.4,7.7,12.8,11.2,19.6c4.5,8.8,8.8,17.2,13.3,23.5v16.1c0,7.6-5.3,14.2-12.7,15.7L109,387.5
	c-14.6,3.1-28.2,9.4-39.3,18.2c-3.5,2.8-5.6,6.8-6,11.3s1.1,8.7,4.1,12c47.8,52.7,116.4,83,188.2,83s140.4-30.2,188.2-83
	c3-3.3,4.5-7.6,4.1-12.1C447.9,412.5,445.7,408.4,442.3,405.7z"/>
</svg>
